<svg xmlns="http://www.w3.org/2000/svg" data-name="Layer 1" viewBox="0 0 100 125" x="0px"
     y="0px">
    <path d="M58.81,55a9.37,9.37,0,0,0-17.62,0,20.91,20.91,0,0,1-1.57,3.14,7.05,7.05,0,0,0-1,3.59c0,4.88,5.09,6.83,11.37,6.83s11.37-2,11.37-6.83a7.05,7.05,0,0,0-1-3.59A20.91,20.91,0,0,1,58.81,55Z"/>
    <path d="M30.48,44.24c-1.87,1.08-2.12,4.18-.54,6.91s4.38,4.07,6.26,3,2.12-4.18.54-6.91S32.36,43.16,30.48,44.24Z"/>
    <path d="M69.52,44.24c-1.88-1.08-4.68.25-6.26,3s-1.34,5.82.54,6.91,4.68-.25,6.26-3S71.39,45.32,69.52,44.24Z"/>
    <path d="M44.37,45.84c2.71-.67,4.12-4.4,3.15-8.34s-4-6.59-6.65-5.92S36.76,36,37.72,39.91,41.67,46.5,44.37,45.84Z"/>
    <path d="M55.63,45.84c2.7.66,5.68-2,6.65-5.93s-.44-7.67-3.15-8.33-5.68,2-6.65,5.92S52.92,45.17,55.63,45.84Z"/>
</svg>